<svg width="25" height="24" viewBox="0 0 25 24" fill="none" xmlns="http://www.w3.org/2000/svg">
<path d="M20.2056 14.06L19.0756 12.18C18.8256 11.77 18.6056 10.98 18.6056 10.5V8.63005C18.6056 5.00005 15.6556 2.05005 12.0356 2.05005C8.40558 2.06005 5.45558 5.00005 5.45558 8.63005V10.49C5.45558 10.97 5.23558 11.76 4.99558 12.17L3.86558 14.05C3.43558 14.78 3.33558 15.61 3.60558 16.33C3.87558 17.06 4.48558 17.64 5.28558 17.9C6.36558 18.26 7.45558 18.52 8.56558 18.71C8.67558 18.73 8.78558 18.74 8.89558 18.76C9.03558 18.7801 9.18558 18.8 9.33558 18.82C9.59558 18.8601 9.85558 18.89 10.1256 18.91C10.7556 18.97 11.3956 19 12.0356 19C12.6656 19 13.2956 18.97 13.9156 18.91C14.1456 18.89 14.3756 18.8701 14.5956 18.84C14.7756 18.82 14.9556 18.8001 15.1356 18.7701C15.2456 18.76 15.3556 18.74 15.4656 18.72C16.5856 18.54 17.6956 18.26 18.7756 17.9C19.5456 17.64 20.1356 17.06 20.4156 16.32C20.6956 15.57 20.6156 14.75 20.2056 14.06ZM12.7656 10C12.7656 10.42 12.4256 10.76 12.0056 10.76C11.5856 10.76 11.2456 10.42 11.2456 10V6.90005C11.2456 6.48005 11.5856 6.14005 12.0056 6.14005C12.4256 6.14005 12.7656 6.48005 12.7656 6.90005V10Z" fill="#fff"/>
<path d="M14.8456 20.01C14.4256 21.17 13.3156 22 12.0156 22C11.2256 22 10.4456 21.68 9.89556 21.11C9.57556 20.81 9.33556 20.41 9.19556 20C9.32556 20.02 9.45556 20.03 9.59556 20.05C9.82556 20.08 10.0656 20.11 10.3056 20.13C10.8756 20.18 11.4556 20.21 12.0356 20.21C12.6056 20.21 13.1756 20.18 13.7356 20.13C13.9456 20.11 14.1556 20.1 14.3556 20.07C14.5156 20.05 14.6756 20.03 14.8456 20.01Z" fill="#fff"/>
</svg>
